# File created by Blade
# Date/Time:  Wed Jan 28 15:39:58 2015
#---------------------------------------------------------
:version 1.10
:name HOM
:units
  mass 1.0
  length 1.000000
  angle deg
:documentation
     Acclaim Skeleton File
:root
   axis xyz
   order TX TY TZ RX RY RZ
   position 0.000000 0.000000 0.000000
   orientation 0 0 0
:bonedata
   begin
      id 1
      name Spine_dum
      direction 0.000000 1.000000 0.000000
      length 6.864287
      axis 0.0 0.0 0.0 xyz
   end
   begin
      id 2
      name LeftUpLeg_dum
      direction 1.000000 0.000000 0.000000
      length 4.117376
      axis 0.0 0.0 0.0 xyz
   end
   begin
      id 3
      name RightUpLeg_dum
      direction -1.000000 0.000000 0.000000
      length 4.117376
      axis 0.0 0.0 0.0 xyz
   end
   begin
      id 4
      name Spine
      direction 0.000000 1.000000 0.000000
      length 0.000000
      axis 0.0 0.0 0.0 xyz
      dof rx ry rz
   end
   begin
      id 5
      name Spine_dum1
      direction 0.000000 1.000000 0.000000
      length 15.393827
      axis 0.0 0.0 0.0 xyz
   end
   begin
      id 6
      name Spine_dum2
      direction 0.000000 1.000000 0.000000
      length 9.314826
      axis 0.0 0.0 0.0 xyz
   end
   begin
      id 7
      name Spine_dum3
      direction 0.000000 1.000000 0.000000
      length 9.314826
      axis 0.0 0.0 0.0 xyz
   end
   begin
      id 8
      name Head
      direction 0.000000 1.000000 0.000000
      length 4.527550
      axis 0.0 0.0 0.0 xyz
      dof rx ry rz
   end
   begin
      id 9
      name LeftShoulder
      direction 1.000000 0.000000 0.000000
      length 8.275398
      axis 0.0 0.0 -90.0 xyz
      dof rx ry rz
   end
   begin
      id 10
      name LeftArm
      direction 1.000000 0.000000 0.000000
      length 12.002200
      axis 0.0 0.0 -90.0 xyz
      dof rx ry rz
   end
   begin
      id 11
      name LeftForeArm
      direction 1.000000 0.000000 0.000000
      length 10.144633
      axis 0.0 0.0 -90.0 xyz
      dof ry rz rx
   end
   begin
      id 12
      name LeftHand
      direction 0.000000 0.000000 0.000000
      length 0.000000
      axis 0.0 0.0 -90.0 xyz
      dof rx ry rz
   end
   begin
      id 13
      name LeftHand_dum1
      direction 0.000000 0.000000 0.000000
      length 0.000000
      axis 0.0 0.0 -90.0 xyz
   end
   begin
      id 14
      name LeftHand_dum2
      direction 1.000000 0.000000 0.000000
      length 3.937000
      axis 0.0 0.0 -90.0 xyz
   end
   begin
      id 15
      name LeftHandThumb1
      direction 0.000000 0.000000 1.000000
      length 3.937000
      axis 0.0 0.0 -90.0 xyz
      dof rx rz ry
   end
   begin
      id 16
      name RightShoulder
      direction -1.000000 0.000000 0.000000
      length 8.275398
      axis 0.0 0.0 90.0 xyz
      dof rx ry rz
   end
   begin
      id 17
      name RightArm
      direction -1.000000 0.000000 0.000000
      length 12.002200
      axis 0.0 0.0 90.0 xyz
      dof rx ry rz
   end
   begin
      id 18
      name RightForeArm
      direction -1.000000 0.000000 0.000000
      length 10.144633
      axis 0.0 0.0 90.0 xyz
      dof ry rz rx
   end
   begin
      id 19
      name RightHand
      direction 0.000000 0.000000 0.000000
      length 0.000000
      axis 0.0 0.0 90.0 xyz
      dof rx ry rz
   end
   begin
      id 20
      name RightHand_dum1
      direction 0.000000 0.000000 0.000000
      length 0.000000
      axis 0.0 0.0 90.0 xyz
   end
   begin
      id 21
      name RightHand_dum2
      direction -1.000000 0.000000 0.000000
      length 3.937000
      axis 0.0 0.0 90.0 xyz
   end
   begin
      id 22
      name RightHandThumb1
      direction 0.000000 0.000000 1.000000
      length 3.937000
      axis 0.0 0.0 90.0 xyz
      dof rx rz ry
   end
   begin
      id 23
      name LeftUpLeg
      direction 0.000000 -1.000000 0.000000
      length 19.394322
      axis 0.0 0.0 0.0 xyz
      dof rx ry rz
   end
   begin
      id 24
      name LeftLeg
      direction 0.000000 -1.000000 0.000000
      length 17.609563
      axis 0.0 0.0 0.0 xyz
      dof rx ry rz
   end
   begin
      id 25
      name LeftFoot
      direction 0.000000 -0.258819 0.965926
      length 6.085393
      axis 15.0 0.0 0.0 xyz
      dof rx ry rz
   end
   begin
      id 26
      name LeftToeBase
      direction 0.000000 0.000000 1.000000
      length 2.952750
      axis 0.0 0.0 0.0 xyz
      dof rx ry rz
   end
   begin
      id 27
      name RightUpLeg
      direction 0.000000 -1.000000 0.000000
      length 19.394322
      axis 0.0 0.0 0.0 xyz
      dof rx ry rz
   end
   begin
      id 28
      name RightLeg
      direction 0.000000 -1.000000 0.000000
      length 17.609563
      axis 0.0 0.0 0.0 xyz
      dof rx ry rz
   end
   begin
      id 29
      name RightFoot
      direction 0.000000 -0.258819 0.965926
      length 6.085393
      axis 15.0 0.0 0.0 xyz
      dof rx ry rz
   end
   begin
      id 30
      name RightToeBase
      direction 0.000000 0.000000 1.000000
      length 2.952750
      axis 0.0 0.0 0.0 xyz
      dof rx ry rz
   end
:hierarchy
   begin
      root Spine_dum LeftUpLeg_dum RightUpLeg_dum
      Spine_dum Spine
      LeftUpLeg_dum LeftUpLeg
      RightUpLeg_dum RightUpLeg
      Spine Spine_dum1 Spine_dum2 Spine_dum3
      Spine_dum1 Head
      Spine_dum2 LeftShoulder
      Spine_dum3 RightShoulder
      LeftShoulder LeftArm
      LeftArm LeftForeArm
      LeftForeArm LeftHand
      LeftHand LeftHand_dum1 LeftHand_dum2
      LeftHand_dum1 LeftHandThumb1
      RightShoulder RightArm
      RightArm RightForeArm
      RightForeArm RightHand
      RightHand RightHand_dum1 RightHand_dum2
      RightHand_dum1 RightHandThumb1
      LeftUpLeg LeftLeg
      LeftLeg LeftFoot
      LeftFoot LeftToeBase
      RightUpLeg RightLeg
      RightLeg RightFoot
      RightFoot RightToeBase
   end

# File created by Blade
# Date/Time:  Wed Jan 28 15:40:07 2015
# Frame Rate: 120.000 fps
#------------------------------------------------------
:FULLY-SPECIFIED
:DEGREES
1211
root -8.973221 40.549545 -16.501206 24.115624 -42.671236 45.418718
Spine 12.619295 1.377304 25.266885
Head -40.385519 -35.117235 5.782004
LeftShoulder -19.808831 13.874824 -9.170007
LeftArm 4.456379 15.325145 -91.271190
LeftForeArm -15.983891 -0.000000 6.606634
LeftHand -2.368210 0.000000 -11.420301
LeftHandThumb1 -26.253704 0.000000 33.147579
RightShoulder -17.493649 8.368601 -45.685092
RightArm 8.621617 85.486404 34.146121
RightForeArm 5.359582 -0.000000 103.168426
RightHand -12.431450 -0.000000 -39.606019
RightHandThumb1 -24.326973 -0.000000 -32.862282
LeftUpLeg -14.495190 2.366949 19.833425
LeftLeg 151.887746 -0.000000 -0.000000
LeftFoot 26.791859 -1.032163 -25.473632
LeftToeBase 3.973349 -0.000000 -0.000000
RightUpLeg -58.620645 -13.274449 -17.827216
RightLeg 18.445866 -0.000000 -0.000000
RightFoot -26.150593 -22.265459 14.976625
RightToeBase 10.710952 -0.000000 -0.000000
1212
root -8.976395 40.543340 -16.516303 24.162032 -42.627368 45.302809
Spine 12.655350 1.383362 25.285397
Head -40.315644 -35.017166 5.747580
LeftShoulder -19.815431 13.853488 -9.183269
LeftArm 4.441822 15.448817 -91.267562
LeftForeArm -16.131784 -0.000000 6.642954
LeftHand -2.378669 -0.000000 -11.386901
LeftHandThumb1 -26.253704 0.000000 33.147579
RightShoulder -17.463958 8.378569 -45.692270
RightArm 7.850298 85.493807 33.561009
RightForeArm 5.352856 -0.000000 103.224937
RightHand -12.430214 -0.000000 -39.626703
RightHandThumb1 -24.326973 -0.000000 -32.862282
LeftUpLeg -14.501533 2.352290 19.836958
LeftLeg 151.888129 -0.000000 -0.000000
LeftFoot 26.844503 -1.078566 -25.553582
LeftToeBase 3.925301 -0.000000 -0.000000
RightUpLeg -58.611076 -13.263416 -17.712729
RightLeg 18.479237 -0.000000 -0.000000
RightFoot -26.154565 -22.222686 14.935700
RightToeBase 10.715726 -0.000000 -0.000000
1213
root -8.980617 40.537442 -16.532800 24.193375 -42.573812 45.169529
Spine 12.735380 1.391539 25.322069
Head -40.502474 -35.104998 5.884089
LeftShoulder -19.810079 13.810993 -9.179254
LeftArm 4.434608 15.557709 -91.276844
LeftForeArm -16.300731 -0.000000 6.654333
LeftHand -2.410910 -0.000000 -11.302518
LeftHandThumb1 -26.253704 0.000000 33.147579
RightShoulder -17.454353 8.366598 -45.712813
RightArm 6.660693 85.496641 32.570087
RightForeArm 5.328555 0.000000 103.253968
RightHand -12.428791 -0.000000 -39.655356
RightHandThumb1 -24.326973 -0.000000 -32.862282
LeftUpLeg -14.485311 2.369762 19.859343
LeftLeg 151.879858 -0.000000 -0.000000
LeftFoot 26.835091 -1.069655 -25.547485
LeftToeBase 3.800572 -0.000000 -0.000000
RightUpLeg -58.559972 -13.220505 -17.618864
RightLeg 18.510832 -0.000000 -0.000000
RightFoot -26.172260 -22.151865 14.945785
RightToeBase 10.995211 -0.000000 -0.000000
1214
root -8.983462 40.533565 -16.548505 24.211937 -42.529661 45.073257
Spine 12.790239 1.430369 25.331789
Head -40.561472 -35.135900 5.937737
LeftShoulder -19.808004 13.885294 -9.177140
LeftArm 4.570107 15.678407 -91.282468
LeftForeArm -16.335547 -0.000000 6.593757
LeftHand -2.490793 -0.000000 -11.266706
LeftHandThumb1 -26.253704 0.000000 33.147579
RightShoulder -17.468113 8.269209 -45.708296
RightArm 6.039447 85.526576 32.127874
RightForeArm 5.346548 -0.000000 103.278005
RightHand -12.410528 -0.000000 -39.708143
RightHandThumb1 -24.326973 -0.000000 -32.862282
LeftUpLeg -14.500546 2.405560 19.838086
LeftLeg 151.881801 -0.000000 -0.000000
LeftFoot 26.757401 -1.003754 -25.528700
LeftToeBase 3.848062 -0.000000 -0.000000
RightUpLeg -58.524969 -13.187547 -17.560443
RightLeg 18.528497 -0.000000 -0.000000
RightFoot -26.242495 -22.174875 15.051879
RightToeBase 10.942264 -0.000000 -0.000000
1215
root -8.985568 40.529631 -16.564395 24.240275 -42.473549 44.970771
Spine 12.831573 1.423662 25.336608
Head -40.597504 -35.172766 6.017324
LeftShoulder -19.862964 13.966527 -9.176015
LeftArm 4.760640 15.853401 -91.271259
LeftForeArm -16.520391 -0.000000 6.474938
LeftHand -2.429126 -0.000000 -11.279593
LeftHandThumb1 -26.253704 0.000000 33.147579
RightShoulder -17.469488 8.159846 -45.660583
RightArm 6.101610 85.556623 32.318978
RightForeArm 5.375056 -0.000000 103.272070
RightHand -12.350233 0.000000 -39.824657
RightHandThumb1 -24.326973 -0.000000 -32.862282
LeftUpLeg -14.536168 2.401683 19.852081
LeftLeg 151.874319 -0.000000 -0.000000
LeftFoot 26.772745 -1.007014 -25.486295
LeftToeBase 3.804770 -0.000000 -0.000000
RightUpLeg -58.497038 -13.169398 -17.477620
RightLeg 18.564612 -0.000000 -0.000000
RightFoot -26.181638 -22.114678 14.952987
RightToeBase 10.697104 -0.000000 -0.000000
1216
root -8.987007 40.527204 -16.580783 24.236276 -42.393992 44.927257
Spine 12.853763 1.372580 25.309436
Head -40.562954 -35.123314 5.988294
LeftShoulder -19.799432 13.811719 -9.207669
LeftArm 4.616621 15.805385 -91.236747
LeftForeArm -16.604970 -0.000000 6.537778
LeftHand -2.250378 -0.000000 -11.091499
LeftHandThumb1 -26.253704 0.000000 33.147579
RightShoulder -17.492566 8.128840 -45.647434
RightArm 6.094621 85.494432 32.447693
RightForeArm 5.289567 -0.000000 103.251874
RightHand -12.341555 0.000000 -39.944695
RightHandThumb1 -24.326973 -0.000000 -32.862282
LeftUpLeg -14.610438 2.324370 19.833362
LeftLeg 151.874447 -0.000000 -0.000000
LeftFoot 26.820883 -1.034082 -25.572379
LeftToeBase 3.706213 -0.000000 -0.000000
RightUpLeg -58.463962 -13.183027 -17.448948
RightLeg 18.603656 -0.000000 -0.000000
RightFoot -26.280188 -22.100322 15.065495
RightToeBase 10.940347 -0.000000 -0.000000
1217
root -8.989418 40.522164 -16.596464 24.212123 -42.282811 44.895116
Spine 12.856003 1.278487 25.279850
Head -40.560629 -35.126702 5.999301
LeftShoulder -19.706213 13.678818 -9.170829
LeftArm 4.423130 15.646221 -91.267129
LeftForeArm -16.522881 -0.000000 6.656394
LeftHand -2.293801 -0.000000 -11.044698
LeftHandThumb1 -26.253704 0.000000 33.147579
RightShoulder -17.481101 8.341991 -45.714546
RightArm 3.927273 85.206053 30.428355
RightForeArm 5.259673 -0.000000 103.245055
RightHand -12.311414 -0.000000 -40.081515
RightHandThumb1 -24.326973 -0.000000 -32.862282
LeftUpLeg -14.664350 2.214115 19.818855
LeftLeg 151.881631 -0.000000 -0.000000
LeftFoot 26.797634 -1.050642 -25.664917
LeftToeBase 3.748446 -0.000000 -0.000000
RightUpLeg -58.427189 -13.247855 -17.381713
RightLeg 18.683144 -0.000000 -0.000000
RightFoot -26.268985 -22.019339 14.953513
RightToeBase 10.784975 -0.000000 -0.000000
1218
root -8.990720 40.518787 -16.607378 24.182599 -42.216929 44.839410
Spine 12.885847 1.186480 25.267575
Head -40.620514 -35.217748 6.050012
LeftShoulder -19.723810 13.732989 -9.242557
LeftArm 4.514402 15.619742 -91.220482
LeftForeArm -16.532309 -0.000000 6.660635
LeftHand -2.323857 -0.000000 -11.105360
LeftHandThumb1 -26.253704 0.000000 33.147579
RightShoulder -17.441810 8.336256 -45.695499
RightArm 3.959905 85.113559 30.529719
RightForeArm 5.166469 -0.000000 103.215784
RightHand -12.300531 -0.000000 -40.254805
RightHandThumb1 -24.326973 -0.000000 -32.862282
LeftUpLeg -14.658809 2.188136 19.793475
LeftLeg 151.902685 -0.000000 -0.000000
LeftFoot 26.706303 -1.020115 -25.782021
LeftToeBase 3.776553 -0.000000 -0.000000
RightUpLeg -58.380128 -13.275550 -17.313092
RightLeg 18.744159 -0.000000 -0.000000
RightFoot -26.291128 -21.932131 14.956768
RightToeBase 10.737354 -0.000000 -0.000000
1219
root -8.989234 40.514883 -16.616178 24.152290 -42.160537 44.769871
Spine 12.927282 1.107329 25.261360
Head -40.469356 -35.131954 5.920259
LeftShoulder -19.744847 13.796618 -9.273453
LeftArm 4.611525 15.629839 -91.213957
LeftForeArm -16.470968 -0.000000 6.633725
LeftHand -2.460660 -0.000000 -11.310476
LeftHandThumb1 -26.253704 0.000000 33.147579
RightShoulder -17.407476 8.335976 -45.663812
RightArm 3.904253 84.995205 30.499243
RightForeArm 5.102413 -0.000000 103.153300
RightHand -12.338078 -0.000000 -40.385658
RightHandThumb1 -24.326973 -0.000000 -32.862282
LeftUpLeg -14.675728 2.235861 19.764303
LeftLeg 151.921927 -0.000000 -0.000000
LeftFoot 26.700191 -0.964667 -25.552086
LeftToeBase 3.729487 -0.000000 -0.000000
RightUpLeg -58.331814 -13.297208 -17.240051
RightLeg 18.809614 -0.000000 -0.000000
RightFoot -26.315613 -21.844969 14.957352
RightToeBase 10.727746 -0.000000 -0.000000
1220
root -8.985957 40.510937 -16.623692 24.134789 -42.116073 44.662742
Spine 12.981862 1.049291 25.289242
Head -40.388467 -35.155583 5.831360
LeftShoulder -19.719153 13.732506 -9.267798
LeftArm 4.551819 15.664028 -91.239049
LeftForeArm -16.591806 -0.000000 6.638199
LeftHand -2.291016 0.000000 -11.193507
LeftHandThumb1 -26.253704 0.000000 33.147579
RightShoulder -17.391017 8.260861 -45.606343
RightArm 4.927704 84.921901 31.499044
RightForeArm 5.041944 -0.000000 103.086495
RightHand -12.464520 0.000000 -40.552775
RightHandThumb1 -24.326973 -0.000000 -32.862282
LeftUpLeg -14.644191 2.238923 19.777443
LeftLeg 151.923007 -0.000000 -0.000000
LeftFoot 26.781916 -0.969156 -25.487234
LeftToeBase 3.721474 -0.000000 -0.000000
RightUpLeg -58.281609 -13.306780 -17.131878
RightLeg 18.875618 -0.000000 -0.000000
RightFoot -26.337246 -21.736641 14.977027
RightToeBase 10.741078 -0.000000 -0.000000
1221
root -8.983589 40.508075 -16.631652 24.129651 -42.065212 44.565303
Spine 12.994118 0.985260 25.323017
Head -40.373413 -35.275235 5.820160
LeftShoulder -19.654121 13.657129 -9.249421
LeftArm 4.446716 15.577886 -91.288214
LeftForeArm -16.651814 -0.000000 6.633822
LeftHand -2.242257 -0.000000 -11.147815
LeftHandThumb1 -26.253704 0.000000 33.147579
RightShoulder -17.327149 8.182353 -45.559813
RightArm 5.479376 84.865383 32.020899
RightForeArm 4.990001 -0.000000 103.012011
RightHand -12.456863 -0.000000 -40.656840
RightHandThumb1 -24.326973 -0.000000 -32.862282
LeftUpLeg -14.647160 2.225404 19.796456
LeftLeg 151.933509 -0.000000 -0.000000
LeftFoot 26.845894 -1.016802 -25.471977
LeftToeBase 3.802165 -0.000000 -0.000000
RightUpLeg -58.225942 -13.309711 -17.056658
RightLeg 18.907861 -0.000000 -0.000000
RightFoot -26.407359 -21.674371 15.079209
RightToeBase 10.917719 -0.000000 -0.000000
1222
root -8.980964 40.502524 -16.640926 24.136546 -42.041296 44.469066
Spine 13.004787 0.987402 25.326369
Head -40.275868 -35.335707 5.773685
LeftShoulder -19.722483 13.782254 -9.286584
LeftArm 4.683170 15.647301 -91.232736
LeftForeArm -16.653283 -0.000000 6.496716
LeftHand -2.274492 -0.000000 -11.241940
LeftHandThumb1 -26.253704 0.000000 33.147579
RightShoulder -17.260507 8.455862 -45.637826
RightArm 2.810761 84.502891 29.375762
RightForeArm 4.975505 -0.000000 102.939076
RightHand -12.481987 -0.000000 -40.636443
RightHandThumb1 -24.326973 -0.000000 -32.862282
LeftUpLeg -14.637574 2.211147 19.813972
LeftLeg 151.933909 -0.000000 -0.000000
LeftFoot 26.922518 -1.104180 -25.519280
LeftToeBase 3.683793 -0.000000 -0.000000
RightUpLeg -58.199165 -13.277910 -16.995713
RightLeg 18.969057 -0.000000 -0.000000
RightFoot -26.363769 -21.563632 15.002307
RightToeBase 10.680365 -0.000000 -0.000000
1223
root -8.974619 40.497135 -16.654766 24.162317 -42.051623 44.396718
Spine 12.994056 1.046427 25.265088
Head -40.175653 -35.357461 5.727097
LeftShoulder -19.737759 13.797523 -9.220791
LeftArm 4.719513 15.679567 -91.258832
LeftForeArm -16.724944 -0.000000 6.451580
LeftHand -2.245637 -0.000000 -11.216663
LeftHandThumb1 -26.253704 0.000000 33.147579
RightShoulder -17.238335 8.550138 -45.600151
RightArm 2.382237 84.282949 28.906160
RightForeArm 4.917487 -0.000000 102.834693
RightHand -12.417480 -0.000000 -40.590130
RightHandThumb1 -24.326973 -0.000000 -32.862282
LeftUpLeg -14.666257 2.238354 19.820194
LeftLeg 151.937728 -0.000000 -0.000000
LeftFoot 26.949195 -1.145169 -25.477063
LeftToeBase 3.750263 -0.000000 -0.000000
RightUpLeg -58.241595 -13.237913 -16.944843
RightLeg 19.051526 -0.000000 -0.000000
RightFoot -26.364051 -21.497915 14.991653
RightToeBase 10.633240 -0.000000 -0.000000
